<?xml version="1.0" standalone="no"?>
<!DOCTYPE svg PUBLIC "-//W3C//DTD SVG 20010904//EN"
 "http://www.w3.org/TR/2001/REC-SVG-20010904/DTD/svg10.dtd">
<svg version="1.0" xmlns="http://www.w3.org/2000/svg"
 width="236.000000pt" height="236.000000pt" viewBox="0 0 236.000000 236.000000"
 preserveAspectRatio="xMidYMid meet">

<g transform="translate(0.000000,236.000000) scale(0.100000,-0.100000)"
fill="#000000" stroke="none">
<path d="M1020 2334 c-93 -28 -192 -78 -257 -130 -30 -25 -49 -53 -72 -109
-48 -113 -51 -145 -29 -293 16 -117 22 -136 53 -182 l35 -52 0 48 c0 39 45
259 55 272 2 2 34 -12 71 -31 138 -69 194 -67 323 11 87 52 100 57 152 57 50
-1 65 -6 114 -40 44 -30 63 -52 87 -99 17 -34 46 -80 64 -103 26 -32 34 -51
35 -85 l1 -43 15 35 c8 19 25 48 36 65 20 28 22 42 22 185 0 138 -3 163 -24
225 -44 128 -176 227 -365 275 -108 27 -209 25 -316 -6z"/>
<path d="M1595 887 c-7 -19 -213 -652 -242 -742 -14 -44 -28 -83 -32 -88 -4
-4 -20 89 -35 206 -27 206 -28 215 -11 247 l17 34 -33 28 c-51 41 -64 43 -114
11 -49 -30 -52 -40 -31 -81 13 -25 11 -51 -14 -236 -16 -114 -30 -210 -32
-212 -2 -2 -65 184 -139 413 -77 239 -140 418 -148 421 -22 8 -358 -76 -419
-106 -89 -42 -172 -133 -226 -244 -39 -81 -50 -120 -86 -301 -23 -115 -44
-215 -47 -223 -4 -12 161 -14 1177 -14 l1182 0 -6 27 c-3 16 -17 107 -31 203
-14 96 -33 198 -41 225 -46 142 -142 265 -252 323 -36 19 -122 45 -232 71 -96
23 -181 44 -188 46 -7 3 -15 -1 -17 -8z"/>
</g>
</svg>
